<svg version="1.1" viewBox="0.0 0.0 960.0 540.0" fill="none" stroke="none" stroke-linecap="square" stroke-miterlimit="10" xmlns:xlink="http://www.w3.org/1999/xlink" xmlns="http://www.w3.org/2000/svg"><clipPath id="p.0"><path d="m0 0l960.0 0l0 540.0l-960.0 0l0 -540.0z" clip-rule="nonzero"/></clipPath><g clip-path="url(#p.0)"><path fill="#212121" d="m0 0l960.0 0l0 540.0l-960.0 0z" fill-rule="evenodd"/><path fill="#adadad" d="m63.401573 50.283466l373.85828 0l0 439.43304l-373.85828 0z" fill-rule="evenodd"/><path stroke="#303030" stroke-width="1.0" stroke-linejoin="round" stroke-linecap="butt" d="m63.401573 50.283466l373.85828 0l0 439.43304l-373.85828 0z" fill-rule="evenodd"/><path fill="#adadad" d="m63.939632 457.5223l121.732285 0l0 32.188965l-121.732285 0z" fill-rule="evenodd"/><path stroke="#303030" stroke-width="1.0" stroke-linejoin="round" stroke-linecap="butt" d="m63.939632 457.5223l121.732285 0l0 32.188965l-121.732285 0z" fill-rule="evenodd"/><path fill="#adadad" d="m186.4462 416.85828l72.37796 0l0 72.85037l-72.37796 0z" fill-rule="evenodd"/><path stroke="#303030" stroke-width="1.0" stroke-linejoin="round" stroke-linecap="butt" d="m186.4462 416.85828l72.37796 0l0 72.85037l-72.37796 0z" fill-rule="evenodd"/><path fill="#adadad" d="m259.33597 417.11548l34.782135 0l0.76641846 36.826782l71.09973 0.25720215l1.5354309 34.015747l-107.92914 0.25460815z" fill-rule="evenodd"/><path stroke="#303030" stroke-width="1.0" stroke-linejoin="round" stroke-linecap="butt" d="m259.33597 417.11548l34.782135 0l0.76641846 36.826782l71.09973 0.25720215l1.5354309 34.015747l-107.92914 0.25460815z" fill-rule="evenodd"/><path fill="#adadad" d="m64.44882 456.9115l0.26164246 -33.052917l29.917961 0l0.77957916 -33.341522l59.835922 0l-0.26164246 34.501892l-30.176926 -0.8687744l0 33.630127z" fill-rule="evenodd"/><path stroke="#303030" stroke-width="1.0" stroke-linejoin="round" stroke-linecap="butt" d="m64.44882 456.9115l0.26164246 -33.052917l29.917961 0l0.77957916 -33.341522l59.835922 0l-0.26164246 34.501892l-30.176926 -0.8687744l0 33.630127z" fill-rule="evenodd"/><path fill="#adadad" d="m123.53018 390.00525l-0.7690277 -24.553802l62.404205 -0.5118103l0.5118103 92.839905l-32.480316 -0.25723267l1.2782135 -67.26245z" fill-rule="evenodd"/><path stroke="#303030" stroke-width="1.0" stroke-linejoin="round" stroke-linecap="butt" d="m123.53018 390.00525l-0.7690277 -24.553802l62.404205 -0.5118103l0.5118103 92.839905l-32.480316 -0.25723267l1.2782135 -67.26245z" fill-rule="evenodd"/><path fill="#adadad" d="m186.18898 383.37534l35.29396 0l-1.0236206 -25.062988l36.5748 0.76638794l0 24.2966l37.850403 -1.0236206l-0.25460815 35.805756l-107.16272 -1.2781982z" fill-rule="evenodd"/><path stroke="#303030" stroke-width="1.0" stroke-linejoin="round" stroke-linecap="butt" d="m186.18898 383.37534l35.29396 0l-1.0236206 -25.062988l36.5748 0.76638794l0 24.2966l37.850403 -1.0236206l-0.25460815 35.805756l-107.16272 -1.2781982z" fill-rule="evenodd"/><path fill="#adadad" d="m257.03412 359.07874l73.14435 -0.25457764l-0.25457764 95.3963l-33.503937 0.25460815l-2.0472412 -72.63254l-37.083984 2.8110046z" fill-rule="evenodd"/><path stroke="#303030" stroke-width="1.0" stroke-linejoin="round" stroke-linecap="butt" d="m257.03412 359.07874l73.14435 -0.25457764l-0.25457764 95.3963l-33.503937 0.25460815l-2.0472412 -72.63254l-37.083984 2.8110046z" fill-rule="evenodd"/><path fill="#adadad" d="m435.55118 356.5223l-30.4357 0l0 131.7139l30.944885 0.76641846z" fill-rule="evenodd"/><path stroke="#303030" stroke-width="1.0" stroke-linejoin="round" stroke-linecap="butt" d="m435.55118 356.5223l-30.4357 0l0 131.7139l30.944885 0.76641846z" fill-rule="evenodd"/><path fill="#adadad" d="m368.0315 487.979l36.060364 0.25720215l0.76641846 -72.88974l-36.826782 0.25457764l-0.5118103 -35.551178l-37.853027 1.0236206l-0.5118103 73.65878l36.829407 -0.76901245z" fill-rule="evenodd"/><path stroke="#303030" stroke-width="1.0" stroke-linejoin="round" stroke-linecap="butt" d="m368.0315 487.979l36.060364 0.25720215l0.76641846 -72.88974l-36.826782 0.25457764l-0.5118103 -35.551178l-37.853027 1.0236206l-0.5118103 73.65878l36.829407 -0.76901245z" fill-rule="evenodd"/><path fill="#adadad" d="m523.5197 50.283466l373.85822 0l0 439.43304l-373.85822 0z" fill-rule="evenodd"/><path stroke="#303030" stroke-width="1.0" stroke-linejoin="round" stroke-linecap="butt" d="m523.5197 50.283466l373.85822 0l0 439.43304l-373.85822 0z" fill-rule="evenodd"/><path fill="#adadad" d="m524.05774 457.5223l121.7323 0l0 32.188965l-121.7323 0z" fill-rule="evenodd"/><path stroke="#303030" stroke-width="1.0" stroke-linejoin="round" stroke-linecap="butt" d="m524.05774 457.5223l121.7323 0l0 32.188965l-121.7323 0z" fill-rule="evenodd"/><path fill="#adadad" d="m646.56433 416.85828l72.37793 0l0 72.85037l-72.37793 0z" fill-rule="evenodd"/><path stroke="#303030" stroke-width="1.0" stroke-linejoin="round" stroke-linecap="butt" d="m646.56433 416.85828l72.37793 0l0 72.85037l-72.37793 0z" fill-rule="evenodd"/><path fill="#adadad" d="m719.45404 417.11548l34.782166 0l0.76641846 36.826782l71.09973 0.25720215l1.5354614 34.015747l-107.92914 0.25460815z" fill-rule="evenodd"/><path stroke="#303030" stroke-width="1.0" stroke-linejoin="round" stroke-linecap="butt" d="m719.45404 417.11548l34.782166 0l0.76641846 36.826782l71.09973 0.25720215l1.5354614 34.015747l-107.92914 0.25460815z" fill-rule="evenodd"/><path fill="#adadad" d="m524.56696 456.9115l0.26159668 -33.052917l29.917969 0l0.77960205 -33.341522l59.835938 0l-0.2616577 34.501892l-30.17694 -0.8687744l0 33.630127z" fill-rule="evenodd"/><path stroke="#303030" stroke-width="1.0" stroke-linejoin="round" stroke-linecap="butt" d="m524.56696 456.9115l0.26159668 -33.052917l29.917969 0l0.77960205 -33.341522l59.835938 0l-0.2616577 34.501892l-30.17694 -0.8687744l0 33.630127z" fill-rule="evenodd"/><path fill="#adadad" d="m583.6483 390.00525l-0.76904297 -24.553802l62.404175 -0.5118103l0.5118408 92.839905l-32.480347 -0.25723267l1.2782593 -67.26245z" fill-rule="evenodd"/><path stroke="#303030" stroke-width="1.0" stroke-linejoin="round" stroke-linecap="butt" d="m583.6483 390.00525l-0.76904297 -24.553802l62.404175 -0.5118103l0.5118408 92.839905l-32.480347 -0.25723267l1.2782593 -67.26245z" fill-rule="evenodd"/><path fill="#adadad" d="m646.30707 383.37534l35.294006 0l-1.0236206 -25.062988l36.574768 0.76638794l0 24.2966l37.850403 -1.0236206l-0.25457764 35.805756l-107.16272 -1.2781982z" fill-rule="evenodd"/><path stroke="#303030" stroke-width="1.0" stroke-linejoin="round" stroke-linecap="butt" d="m646.30707 383.37534l35.294006 0l-1.0236206 -25.062988l36.574768 0.76638794l0 24.2966l37.850403 -1.0236206l-0.25457764 35.805756l-107.16272 -1.2781982z" fill-rule="evenodd"/><path fill="#adadad" d="m717.1522 359.07874l73.14435 -0.25457764l-0.25457764 95.3963l-33.503906 0.25460815l-2.0473022 -72.63254l-37.083984 2.8110046z" fill-rule="evenodd"/><path stroke="#303030" stroke-width="1.0" stroke-linejoin="round" stroke-linecap="butt" d="m717.1522 359.07874l73.14435 -0.25457764l-0.25457764 95.3963l-33.503906 0.25460815l-2.0473022 -72.63254l-37.083984 2.8110046z" fill-rule="evenodd"/><path fill="#adadad" d="m895.6693 356.5223l-30.43573 0l0 131.7139l30.944885 0.76641846z" fill-rule="evenodd"/><path stroke="#303030" stroke-width="1.0" stroke-linejoin="round" stroke-linecap="butt" d="m895.6693 356.5223l-30.43573 0l0 131.7139l30.944885 0.76641846z" fill-rule="evenodd"/><path fill="#adadad" d="m828.1496 487.979l36.060364 0.25720215l0.76641846 -72.88974l-36.826782 0.25457764l-0.5117798 -35.551178l-37.853027 1.0236206l-0.5118408 73.65878l36.829407 -0.76901245z" fill-rule="evenodd"/><path stroke="#303030" stroke-width="1.0" stroke-linejoin="round" stroke-linecap="butt" d="m828.1496 487.979l36.060364 0.25720215l0.76641846 -72.88974l-36.826782 0.25457764l-0.5117798 -35.551178l-37.853027 1.0236206l-0.5118408 73.65878l36.829407 -0.76901245z" fill-rule="evenodd"/><path fill="#000000" fill-opacity="0.0" d="m393.3832 497.05774l89.700775 23.527588" fill-rule="evenodd"/><path stroke="#ffffff" stroke-width="4.0" stroke-linejoin="round" stroke-linecap="butt" d="m393.3832 497.05774l66.48605 17.438599" fill-rule="evenodd"/><path fill="#ffffff" stroke="#ffffff" stroke-width="4.0" stroke-linecap="butt" d="m458.19302 520.8871l19.23468 -1.7853394l-15.882233 -10.996185z" fill-rule="evenodd"/><path fill="#000000" fill-opacity="0.0" d="m480.14697 518.3832l223.52759 -19.842499" fill-rule="evenodd"/><path stroke="#ffffff" stroke-width="4.0" stroke-linejoin="round" stroke-linecap="butt" d="m480.14697 518.3832l199.62158 -17.720367" fill-rule="evenodd"/><path fill="#ffffff" stroke="#ffffff" stroke-width="4.0" stroke-linecap="butt" d="m680.3527 507.24387l17.497131 -8.186127l-18.665527 -4.9759827z" fill-rule="evenodd"/><path fill="#000000" fill-opacity="0.0" d="m138.56693 5.8792653l223.52756 0l0 44.40945l-223.52756 0z" fill-rule="evenodd"/><path fill="#adadad" d="m176.59242 37.919266l0 -17.1875l6.46875 0q1.71875 0 2.625 0.171875q1.265625 0.203125 2.109375 0.796875q0.859375 0.59375 1.375 1.671875q0.53125 1.0625 0.53125 2.328125q0 2.203125 -1.40625 3.71875q-1.390625 1.515625 -5.03125 1.515625l-4.40625 0l0 6.984375l-2.265625 0zm2.265625 -9.015625l4.4375 0q2.203125 0 3.125 -0.8125q0.9375 -0.828125 0.9375 -2.3125q0 -1.078125 -0.546875 -1.84375q-0.546875 -0.765625 -1.4375 -1.015625q-0.578125 -0.15625 -2.125 -0.15625l-4.390625 0l0 6.140625zm13.4140625 9.015625l0 -17.1875l2.109375 0l0 17.1875l-2.109375 0zm13.503906 -1.53125q-1.171875 0.984375 -2.265625 1.40625q-1.078125 0.40625 -2.3125 0.40625q-2.046875 0 -3.15625 -1.0q-1.09375 -1.0 -1.09375 -2.5625q0 -0.921875 0.40625 -1.671875q0.421875 -0.75 1.09375 -1.203125q0.671875 -0.46875 1.515625 -0.703125q0.625 -0.15625 1.875 -0.3125q2.5625 -0.3125 3.765625 -0.734375q0.015625 -0.421875 0.015625 -0.546875q0 -1.28125 -0.609375 -1.8125q-0.796875 -0.71875 -2.390625 -0.71875q-1.5 0 -2.203125 0.53125q-0.703125 0.515625 -1.046875 1.84375l-2.0625 -0.28125q0.28125 -1.328125 0.921875 -2.140625q0.640625 -0.8125 1.859375 -1.25q1.21875 -0.453125 2.828125 -0.453125q1.59375 0 2.59375 0.375q1.0 0.375 1.46875 0.953125q0.46875 0.5625 0.65625 1.4375q0.09375 0.53125 0.09375 1.9375l0 2.8125q0 2.9375 0.140625 3.71875q0.140625 0.78125 0.53125 1.5l-2.203125 0q-0.328125 -0.65625 -0.421875 -1.53125zm-0.171875 -4.71875q-1.15625 0.46875 -3.453125 0.796875q-1.296875 0.1875 -1.84375 0.421875q-0.53125 0.234375 -0.828125 0.6875q-0.28125 0.453125 -0.28125 1.0q0 0.84375 0.625 1.40625q0.640625 0.5625 1.875 0.5625q1.21875 0 2.171875 -0.53125q0.953125 -0.53125 1.390625 -1.453125q0.34375 -0.71875 0.34375 -2.109375l0 -0.78125zm5.3007812 11.046875l-0.234375 -1.984375q0.703125 0.1875 1.21875 0.1875q0.703125 0 1.125 -0.234375q0.421875 -0.234375 0.6875 -0.65625q0.203125 -0.3125 0.640625 -1.5625q0.0625 -0.1875 0.1875 -0.515625l-4.71875 -12.484375l2.265625 0l2.59375 7.21875q0.5 1.359375 0.90625 2.875q0.359375 -1.453125 0.859375 -2.828125l2.671875 -7.265625l2.109375 0l-4.734375 12.671875q-0.765625 2.046875 -1.1875 2.8125q-0.5625 1.046875 -1.296875 1.53125q-0.71875 0.484375 -1.734375 0.484375q-0.609375 0 -1.359375 -0.25zm20.625 -8.8125l2.171875 0.28125q-0.515625 1.90625 -1.90625 2.96875q-1.390625 1.046875 -3.5625 1.046875q-2.734375 0 -4.34375 -1.671875q-1.59375 -1.6875 -1.59375 -4.734375q0 -3.140625 1.609375 -4.875q1.625 -1.734375 4.203125 -1.734375q2.5 0 4.078125 1.703125q1.59375 1.703125 1.59375 4.78125q0 0.1875 -0.015625 0.5625l-9.28125 0q0.109375 2.046875 1.15625 3.140625q1.046875 1.09375 2.609375 1.09375q1.15625 0 1.96875 -0.609375q0.828125 -0.609375 1.3125 -1.953125zm-6.9375 -3.40625l6.953125 0q-0.140625 -1.5625 -0.796875 -2.359375q-1.0 -1.21875 -2.609375 -1.21875q-1.453125 0 -2.453125 0.984375q-0.984375 0.96875 -1.09375 2.59375zm11.738281 7.421875l0 -12.453125l1.890625 0l0 1.890625q0.734375 -1.328125 1.34375 -1.75q0.625 -0.421875 1.359375 -0.421875q1.0625 0 2.171875 0.6875l-0.734375 1.953125q-0.765625 -0.453125 -1.546875 -0.453125q-0.6875 0 -1.25 0.421875q-0.546875 0.40625 -0.78125 1.140625q-0.34375 1.125 -0.34375 2.46875l0 6.515625l-2.109375 0zm22.035172 0l-2.109375 0l0 -13.4375q-0.75001526 0.71875 -2.0000153 1.453125q-1.234375 0.71875 -2.21875 1.078125l0 -2.03125q1.78125 -0.828125 3.09375 -2.015625q1.3281403 -1.1875 1.8750153 -2.296875l1.359375 0l0 17.25zm16.6875 5.046875q-1.734375 -2.203125 -2.953125 -5.15625q-1.203125 -2.953125 -1.203125 -6.109375q0 -2.796875 0.90625 -5.34375q1.046875 -2.96875 3.25 -5.90625l1.515625 0q-1.421875 2.4375 -1.875 3.46875q-0.71875 1.625 -1.125 3.375q-0.5 2.203125 -0.5 4.40625q0 5.640625 3.5 11.265625l-1.515625 0zm9.0703125 -5.046875l0 -7.28125l-6.609375 -9.90625l2.765625 0l3.375 5.1875q0.9375 1.453125 1.75 2.90625q0.78125 -1.34375 1.875 -3.03125l3.328125 -5.0625l2.65625 0l-6.859375 9.90625l0 7.28125l-2.28125 0zm7.9140625 -6.21875q0 -3.46875 1.921875 -5.125q1.609375 -1.390625 3.921875 -1.390625q2.5625 0 4.1875 1.6875q1.625 1.6875 1.625 4.640625q0 2.40625 -0.71875 3.78125q-0.71875 1.375 -2.09375 2.140625q-1.375 0.765625 -3.0 0.765625q-2.625 0 -4.234375 -1.671875q-1.609375 -1.6875 -1.609375 -4.828125zm2.171875 0q0 2.390625 1.03125 3.578125q1.046875 1.1875 2.640625 1.1875q1.5625 0 2.609375 -1.1875q1.046875 -1.203125 1.046875 -3.65625q0 -2.3125 -1.0625 -3.5q-1.046875 -1.1875 -2.59375 -1.1875q-1.59375 0 -2.640625 1.1875q-1.03125 1.1875 -1.03125 3.578125zm20.113281 6.21875l0 -1.828125q-1.453125 2.109375 -3.9375 2.109375q-1.109375 0 -2.0625 -0.421875q-0.953125 -0.421875 -1.421875 -1.0625q-0.453125 -0.640625 -0.640625 -1.5625q-0.140625 -0.625 -0.140625 -1.96875l0 -7.71875l2.109375 0l0 6.90625q0 1.65625 0.140625 2.234375q0.1875 0.828125 0.828125 1.3125q0.65625 0.46875 1.609375 0.46875q0.9375 0 1.765625 -0.484375q0.84375 -0.5 1.1875 -1.328125q0.34375 -0.84375 0.34375 -2.4375l0 -6.671875l2.109375 0l0 12.453125l-1.890625 0zm6.5820312 5.046875l-1.515625 0q3.5 -5.625 3.5 -11.265625q0 -2.203125 -0.5 -4.359375q-0.390625 -1.765625 -1.109375 -3.375q-0.453125 -1.0625 -1.890625 -3.515625l1.515625 0q2.203125 2.9375 3.25 5.90625q0.90625 2.546875 0.90625 5.34375q0 3.15625 -1.21875 6.109375q-1.203125 2.953125 -2.9375 5.15625z" fill-rule="nonzero"/><path fill="#000000" fill-opacity="0.0" d="m554.4029 5.8792653l292.5039 0l0 44.40945l-292.5039 0z" fill-rule="evenodd"/><path fill="#adadad" d="m594.4556 37.919266l0 -17.1875l6.46875 0q1.71875 0 2.625 0.171875q1.265625 0.203125 2.109375 0.796875q0.859375 0.59375 1.375 1.671875q0.53125 1.0625 0.53125 2.328125q0 2.203125 -1.40625 3.71875q-1.390625 1.515625 -5.03125 1.515625l-4.40625 0l0 6.984375l-2.265625 0zm2.265625 -9.015625l4.4375 0q2.203125 0 3.125 -0.8125q0.9375 -0.828125 0.9375 -2.3125q0 -1.078125 -0.546875 -1.84375q-0.546875 -0.765625 -1.4375 -1.015625q-0.578125 -0.15625 -2.125 -0.15625l-4.390625 0l0 6.140625zm13.4140625 9.015625l0 -17.1875l2.109375 0l0 17.1875l-2.109375 0zm13.503906 -1.53125q-1.171875 0.984375 -2.265625 1.40625q-1.078125 0.40625 -2.3125 0.40625q-2.046875 0 -3.15625 -1.0q-1.09375 -1.0 -1.09375 -2.5625q0 -0.921875 0.40625 -1.671875q0.421875 -0.75 1.09375 -1.203125q0.671875 -0.46875 1.515625 -0.703125q0.625 -0.15625 1.875 -0.3125q2.5625 -0.3125 3.765625 -0.734375q0.015625 -0.421875 0.015625 -0.546875q0 -1.28125 -0.609375 -1.8125q-0.796875 -0.71875 -2.390625 -0.71875q-1.5 0 -2.203125 0.53125q-0.703125 0.515625 -1.046875 1.84375l-2.0625 -0.28125q0.28125 -1.328125 0.921875 -2.140625q0.640625 -0.8125 1.859375 -1.25q1.21875 -0.453125 2.828125 -0.453125q1.59375 0 2.59375 0.375q1.0 0.375 1.46875 0.953125q0.46875 0.5625 0.65625 1.4375q0.09375 0.53125 0.09375 1.9375l0 2.8125q0 2.9375 0.140625 3.71875q0.140625 0.78125 0.53125 1.5l-2.203125 0q-0.328125 -0.65625 -0.421875 -1.53125zm-0.171875 -4.71875q-1.15625 0.46875 -3.453125 0.796875q-1.296875 0.1875 -1.84375 0.421875q-0.53125 0.234375 -0.828125 0.6875q-0.28125 0.453125 -0.28125 1.0q0 0.84375 0.625 1.40625q0.640625 0.5625 1.875 0.5625q1.21875 0 2.171875 -0.53125q0.953125 -0.53125 1.390625 -1.453125q0.34375 -0.71875 0.34375 -2.109375l0 -0.78125zm5.3007812 11.046875l-0.234375 -1.984375q0.703125 0.1875 1.21875 0.1875q0.703125 0 1.125 -0.234375q0.421875 -0.234375 0.6875 -0.65625q0.203125 -0.3125 0.640625 -1.5625q0.0625 -0.1875 0.1875 -0.515625l-4.71875 -12.484375l2.265625 0l2.59375 7.21875q0.5 1.359375 0.90625 2.875q0.359375 -1.453125 0.859375 -2.828125l2.671875 -7.265625l2.109375 0l-4.734375 12.671875q-0.765625 2.046875 -1.1875 2.8125q-0.5625 1.046875 -1.296875 1.53125q-0.71875 0.484375 -1.734375 0.484375q-0.609375 0 -1.359375 -0.25zm20.625 -8.8125l2.171875 0.28125q-0.515625 1.90625 -1.90625 2.96875q-1.390625 1.046875 -3.5625 1.046875q-2.734375 0 -4.34375 -1.671875q-1.59375 -1.6875 -1.59375 -4.734375q0 -3.140625 1.609375 -4.875q1.625 -1.734375 4.203125 -1.734375q2.5 0 4.078125 1.703125q1.59375 1.703125 1.59375 4.78125q0 0.1875 -0.015625 0.5625l-9.28125 0q0.109375 2.046875 1.15625 3.140625q1.046875 1.09375 2.609375 1.09375q1.15625 0 1.96875 -0.609375q0.828125 -0.609375 1.3125 -1.953125zm-6.9375 -3.40625l6.953125 0q-0.140625 -1.5625 -0.796875 -2.359375q-1.0 -1.21875 -2.609375 -1.21875q-1.453125 0 -2.453125 0.984375q-0.984375 0.96875 -1.09375 2.59375zm11.738281 7.421875l0 -12.453125l1.890625 0l0 1.890625q0.734375 -1.328125 1.34375 -1.75q0.625 -0.421875 1.359375 -0.421875q1.0625 0 2.171875 0.6875l-0.734375 1.953125q-0.765625 -0.453125 -1.546875 -0.453125q-0.6875 0 -1.25 0.421875q-0.546875 0.40625 -0.78125 1.140625q-0.34375 1.125 -0.34375 2.46875l0 6.515625l-2.109375 0zm25.175781 -2.03125l0 2.03125l-11.34375 0q-0.03125 -0.765625 0.234375 -1.46875q0.4375 -1.15625 1.390625 -2.28125q0.953125 -1.125 2.765625 -2.609375q2.796875 -2.296875 3.78125 -3.625q0.984375 -1.34375 0.984375 -2.546875q0 -1.25 -0.90625 -2.109375q-0.890625 -0.859375 -2.328125 -0.859375q-1.515625 0 -2.4375 0.921875q-0.90625 0.90625 -0.921875 2.515625l-2.171875 -0.21875q0.21875 -2.421875 1.671875 -3.6875q1.453125 -1.28125 3.90625 -1.28125q2.46875 0 3.90625 1.375q1.453125 1.359375 1.453125 3.390625q0 1.03125 -0.421875 2.03125q-0.421875 1.0 -1.40625 2.109375q-0.96875 1.09375 -3.25 3.015625q-1.890625 1.59375 -2.4375 2.15625q-0.53125 0.5625 -0.890625 1.140625l8.421875 0zm13.546875 7.078125q-1.734375 -2.203125 -2.953125 -5.15625q-1.203125 -2.953125 -1.203125 -6.109375q0 -2.796875 0.90625 -5.34375q1.046875 -2.96875 3.25 -5.90625l1.515625 0q-1.421875 2.4375 -1.875 3.46875q-0.71875 1.625 -1.125 3.375q-0.5 2.203125 -0.5 4.40625q0 5.640625 3.5 11.265625l-1.515625 0zm3.5390625 -13.421875q0 -4.265625 2.296875 -6.6875q2.296875 -2.421875 5.9375 -2.421875q2.375 0 4.28125 1.140625q1.921875 1.125 2.921875 3.171875q1.0 2.03125 1.0 4.609375q0 2.609375 -1.0625 4.671875q-1.046875 2.0625 -2.984375 3.125q-1.9375 1.0625 -4.171875 1.0625q-2.421875 0 -4.34375 -1.171875q-1.90625 -1.171875 -2.890625 -3.203125q-0.984375 -2.03125 -0.984375 -4.296875zm2.34375 0.046875q0 3.09375 1.671875 4.890625q1.671875 1.78125 4.1875 1.78125q2.578125 0 4.234375 -1.796875q1.65625 -1.8125 1.65625 -5.125q0 -2.09375 -0.71875 -3.65625q-0.703125 -1.578125 -2.078125 -2.4375q-1.359375 -0.859375 -3.046875 -0.859375q-2.421875 0 -4.171875 1.65625q-1.734375 1.65625 -1.734375 5.546875zm16.746094 13.09375l0 -17.21875l1.921875 0l0 1.625q0.6875 -0.953125 1.53125 -1.421875q0.859375 -0.484375 2.078125 -0.484375q1.59375 0 2.8125 0.828125q1.21875 0.8125 1.84375 2.3125q0.625 1.5 0.625 3.28125q0 1.90625 -0.6875 3.4375q-0.6875 1.53125 -2.0 2.34375q-1.296875 0.8125 -2.734375 0.8125q-1.0625 0 -1.90625 -0.4375q-0.828125 -0.453125 -1.375 -1.140625l0 6.0625l-2.109375 0zm1.921875 -10.921875q0 2.40625 0.96875 3.5625q0.96875 1.140625 2.359375 1.140625q1.40625 0 2.40625 -1.1875q1.0 -1.1875 1.0 -3.6875q0 -2.375 -0.984375 -3.5625q-0.96875 -1.1875 -2.328125 -1.1875q-1.359375 0 -2.390625 1.265625q-1.03125 1.25 -1.03125 3.65625zm11.425781 10.921875l0 -17.21875l1.921875 0l0 1.625q0.6875 -0.953125 1.53125 -1.421875q0.859375 -0.484375 2.078125 -0.484375q1.59375 0 2.8125 0.828125q1.21875 0.8125 1.84375 2.3125q0.625 1.5 0.625 3.28125q0 1.90625 -0.6875 3.4375q-0.6875 1.53125 -2.0 2.34375q-1.296875 0.8125 -2.734375 0.8125q-1.0625 0 -1.90625 -0.4375q-0.828125 -0.453125 -1.375 -1.140625l0 6.0625l-2.109375 0zm1.921875 -10.921875q0 2.40625 0.96875 3.5625q0.96875 1.140625 2.359375 1.140625q1.40625 0 2.40625 -1.1875q1.0 -1.1875 1.0 -3.6875q0 -2.375 -0.984375 -3.5625q-0.96875 -1.1875 -2.328125 -1.1875q-1.359375 0 -2.390625 1.265625q-1.03125 1.25 -1.03125 3.65625zm10.644531 -0.0625q0 -3.46875 1.921875 -5.125q1.609375 -1.390625 3.921875 -1.390625q2.5625 0 4.1875 1.6875q1.625 1.6875 1.625 4.640625q0 2.40625 -0.71875 3.78125q-0.71875 1.375 -2.09375 2.140625q-1.375 0.765625 -3.0 0.765625q-2.625 0 -4.234375 -1.671875q-1.609375 -1.6875 -1.609375 -4.828125zm2.171875 0q0 2.390625 1.03125 3.578125q1.046875 1.1875 2.640625 1.1875q1.5625 0 2.609375 -1.1875q1.046875 -1.203125 1.046875 -3.65625q0 -2.3125 -1.0625 -3.5q-1.046875 -1.1875 -2.59375 -1.1875q-1.59375 0 -2.640625 1.1875q-1.03125 1.1875 -1.03125 3.578125zm11.957031 6.21875l0 -12.453125l1.90625 0l0 1.78125q1.375 -2.0625 3.953125 -2.0625q1.125 0 2.0625 0.40625q0.953125 0.40625 1.421875 1.0625q0.46875 0.65625 0.65625 1.5625q0.125 0.578125 0.125 2.046875l0 7.65625l-2.109375 0l0 -7.578125q0 -1.28125 -0.25 -1.921875q-0.25 -0.640625 -0.875 -1.015625q-0.625 -0.390625 -1.46875 -0.390625q-1.34375 0 -2.328125 0.859375q-0.984375 0.859375 -0.984375 3.25l0 6.796875l-2.109375 0zm21.878906 -4.015625l2.171875 0.28125q-0.515625 1.90625 -1.90625 2.96875q-1.390625 1.046875 -3.5625 1.046875q-2.734375 0 -4.34375 -1.671875q-1.59375 -1.6875 -1.59375 -4.734375q0 -3.140625 1.609375 -4.875q1.625 -1.734375 4.203125 -1.734375q2.5 0 4.078125 1.703125q1.59375 1.703125 1.59375 4.78125q0 0.1875 -0.015625 0.5625l-9.28125 0q0.109375 2.046875 1.15625 3.140625q1.046875 1.09375 2.609375 1.09375q1.15625 0 1.96875 -0.609375q0.828125 -0.609375 1.3125 -1.953125zm-6.9375 -3.40625l6.953125 0q-0.140625 -1.5625 -0.796875 -2.359375q-1.0 -1.21875 -2.609375 -1.21875q-1.453125 0 -2.453125 0.984375q-0.984375 0.96875 -1.09375 2.59375zm11.753906 7.421875l0 -12.453125l1.90625 0l0 1.78125q1.375 -2.0625 3.953125 -2.0625q1.125 0 2.0625 0.40625q0.953125 0.40625 1.421875 1.0625q0.46875 0.65625 0.65625 1.5625q0.125 0.578125 0.125 2.046875l0 7.65625l-2.109375 0l0 -7.578125q0 -1.28125 -0.25 -1.921875q-0.25 -0.640625 -0.875 -1.015625q-0.625 -0.390625 -1.46875 -0.390625q-1.34375 0 -2.328125 0.859375q-0.984375 0.859375 -0.984375 3.25l0 6.796875l-2.109375 0zm17.957031 -1.890625l0.3125 1.859375q-0.890625 0.203125 -1.59375 0.203125q-1.15625 0 -1.796875 -0.359375q-0.625 -0.375 -0.890625 -0.96875q-0.25 -0.59375 -0.25 -2.484375l0 -7.171875l-1.546875 0l0 -1.640625l1.546875 0l0 -3.078125l2.09375 -1.265625l0 4.34375l2.125 0l0 1.640625l-2.125 0l0 7.28125q0 0.90625 0.109375 1.171875q0.125 0.25 0.375 0.40625q0.25 0.140625 0.71875 0.140625q0.34375 0 0.921875 -0.078125zm3.4492188 6.9375l-1.515625 0q3.5 -5.625 3.5 -11.265625q0 -2.203125 -0.5 -4.359375q-0.390625 -1.765625 -1.109375 -3.375q-0.453125 -1.0625 -1.890625 -3.515625l1.515625 0q2.203125 2.9375 3.25 5.90625q0.90625 2.546875 0.90625 5.34375q0 3.15625 -1.21875 6.109375q-1.203125 2.953125 -2.9375 5.15625z" fill-rule="nonzero"/><path fill="#000000" fill-opacity="0.0" d="m951.75854 46.110237l0 447.77954l-44.409485 0l0 -447.77954z" fill-rule="evenodd"/><path fill="#adadad" d="m927.39856 56.282112l11.453125 0l0 4.296875q0 1.3125 -0.34375 2.109375q-0.34375 0.796875 -1.078125 1.234375q-0.71875 0.453125 -1.5 0.453125q-0.734375 0 -1.390625 -0.40625q-0.640625 -0.390625 -1.046875 -1.1875q-0.296875 1.03125 -1.03125 1.59375q-0.734375 0.5625 -1.734375 0.5625q-0.8125 0 -1.5 -0.34375q-0.6875 -0.34375 -1.0625 -0.84375q-0.375 -0.5 -0.578125 -1.25q-0.1875 -0.75 -0.1875 -1.84375l0 -4.375zm6.640625 1.515625l0 2.484375q0 1.0 0.140625 1.4375q0.171875 0.578125 0.5625 0.875q0.40625 0.296875 1.0 0.296875q0.578125 0 1.0 -0.28125q0.4375 -0.265625 0.59375 -0.78125q0.171875 -0.5 0.171875 -1.734375l0 -2.296875l-3.46875 0zm-5.28125 0l0 2.859375q0 0.734375 0.046875 1.03125q0.09375 0.515625 0.3125 0.859375q0.21875 0.359375 0.640625 0.578125q0.421875 0.234375 0.96875 0.234375q0.640625 0 1.109375 -0.328125q0.46875 -0.328125 0.65625 -0.90625q0.203125 -0.578125 0.203125 -1.671875l0 -2.65625l-3.9375 0zm-0.328125 14.453125q-0.671875 -0.78125 -0.953125 -1.5q-0.265625 -0.71875 -0.265625 -1.546875q0 -1.375 0.671875 -2.109375q0.671875 -0.734375 1.703125 -0.734375q0.609375 0 1.109375 0.28125q0.515625 0.28125 0.8125 0.71875q0.3125 0.453125 0.46875 1.015625q0.109375 0.421875 0.203125 1.25q0.203125 1.703125 0.484375 2.515625q0.296875 0 0.375 0q0.859375 0 1.203125 -0.390625q0.484375 -0.546875 0.484375 -1.609375q0 -0.984375 -0.359375 -1.46875q-0.34375 -0.46875 -1.21875 -0.6875l0.1875 -1.375q0.875 0.1875 1.421875 0.609375q0.546875 0.4375 0.828125 1.25q0.296875 0.8125 0.296875 1.875q0 1.0625 -0.25 1.71875q-0.25 0.671875 -0.625 0.984375q-0.375 0.3125 -0.953125 0.4375q-0.359375 0.078125 -1.296875 0.078125l-1.875 0q-1.96875 0 -2.484375 0.078125q-0.515625 0.09375 -1.0 0.359375l0 -1.46875q0.4375 -0.21875 1.03125 -0.28125zm3.140625 -0.109375q-0.3125 -0.765625 -0.53125 -2.296875q-0.125 -0.875 -0.28125 -1.234375q-0.15625 -0.359375 -0.46875 -0.5625q-0.296875 -0.1875 -0.65625 -0.1875q-0.5625 0 -0.9375 0.421875q-0.375 0.4375 -0.375 1.25q0 0.8125 0.34375 1.4375q0.359375 0.640625 0.984375 0.9375q0.46875 0.234375 1.40625 0.234375l0.515625 0zm-1.125 9.0078125l-0.1875 1.390625q-1.421875 -0.234375 -2.234375 -1.171875q-0.8125 -0.921875 -0.8125 -2.28125q0 -1.703125 1.109375 -2.75q1.125 -1.03125 3.203125 -1.03125q1.34375 0 2.34375 0.4375q1.015625 0.453125 1.515625 1.359375q0.5 0.921875 0.5 1.984375q0 1.359375 -0.6875 2.21875q-0.671875 0.859375 -1.9375 1.09375l-0.203125 -1.359375q0.828125 -0.203125 1.25 -0.703125q0.421875 -0.484375 0.421875 -1.1875q0 -1.0625 -0.765625 -1.734375q-0.75 -0.65625 -2.40625 -0.65625q-1.671875 0 -2.4375 0.640625q-0.75 0.640625 -0.75 1.671875q0 0.828125 0.5 1.375q0.515625 0.5625 1.578125 0.703125zm-3.046875 2.59375l11.453125 0l0 1.40625l-6.53125 0l3.375 3.328125l0 1.828125l-3.078125 -3.171875l-5.21875 3.484375l0 -1.734375l4.25 -2.734375l-0.953125 -1.0l-3.296875 0l0 -1.40625zm-0.6875 7.734375l-0.203125 1.375q-0.640625 0.078125 -0.921875 0.46875q-0.390625 0.53125 -0.390625 1.4375q0 0.96875 0.390625 1.5q0.390625 0.53125 1.09375 0.71875q0.421875 0.109375 1.8125 0.109375q-1.09375 -0.921875 -1.09375 -2.296875q0 -1.71875 1.234375 -2.65625q1.234375 -0.9375 2.96875 -0.9375q1.1875 0 2.1875 0.421875q1.0 0.4375 1.546875 1.25q0.546875 0.828125 0.546875 1.921875q0 1.46875 -1.1875 2.421875l1.0 0l0 1.296875l-7.171875 0q-1.9375 0 -2.75 -0.390625q-0.8125 -0.390625 -1.28125 -1.25q-0.46875 -0.859375 -0.46875 -2.109375q0 -1.484375 0.671875 -2.40625q0.671875 -0.90625 2.015625 -0.875zm4.984375 1.171875q-1.625 0 -2.375 0.640625q-0.75 0.65625 -0.75 1.625q0 0.96875 0.734375 1.625q0.75 0.65625 2.34375 0.65625q1.53125 0 2.296875 -0.671875q0.78125 -0.671875 0.78125 -1.625q0 -0.9375 -0.765625 -1.59375q-0.765625 -0.65625 -2.265625 -0.65625zm-4.296875 7.9765625l8.296875 0l0 1.265625l-1.25 0q0.875 0.484375 1.15625 0.890625q0.28125 0.40625 0.28125 0.90625q0 0.703125 -0.453125 1.4375l-1.296875 -0.484375q0.296875 -0.515625 0.296875 -1.03125q0 -0.453125 -0.28125 -0.828125q-0.265625 -0.359375 -0.765625 -0.515625q-0.75 -0.234375 -1.640625 -0.234375l-4.34375 0l0 -1.40625zm4.15625 4.8125q2.296875 0 3.40625 1.28125q0.921875 1.078125 0.921875 2.609375q0 1.71875 -1.125 2.796875q-1.109375 1.09375 -3.09375 1.09375q-1.59375 0 -2.515625 -0.484375q-0.921875 -0.484375 -1.4375 -1.40625q-0.5 -0.90625 -0.5 -2.0q0 -1.734375 1.109375 -2.8125q1.125 -1.078125 3.234375 -1.078125zm0 1.453125q-1.59375 0 -2.390625 0.6875q-0.796875 0.703125 -0.796875 1.75q0 1.046875 0.796875 1.734375q0.796875 0.703125 2.4375 0.703125q1.53125 0 2.328125 -0.703125q0.796875 -0.6875 0.796875 -1.734375q0 -1.046875 -0.796875 -1.75q-0.78125 -0.6875 -2.375 -0.6875zm-4.15625 13.4140625l1.21875 0q-1.40625 -0.96875 -1.40625 -2.640625q0 -0.734375 0.28125 -1.375q0.28125 -0.625 0.703125 -0.9375q0.4375 -0.3125 1.046875 -0.4375q0.421875 -0.078125 1.3125 -0.078125l5.140625 0l0 1.40625l-4.59375 0q-1.109375 0 -1.484375 0.078125q-0.5625 0.140625 -0.875 0.5625q-0.3125 0.4375 -0.3125 1.0625q0 0.640625 0.3125 1.1875q0.328125 0.5625 0.890625 0.78125q0.5625 0.234375 1.625 0.234375l4.4375 0l0 1.40625l-8.296875 0l0 -1.25zm0 3.4609375l8.296875 0l0 1.265625l-1.171875 0q1.359375 0.90625 1.359375 2.640625q0 0.7499924 -0.265625 1.3749924q-0.265625 0.625 -0.703125 0.9375q-0.4375 0.3125 -1.046875 0.4375q-0.390625 0.078125 -1.359375 0.078125l-5.109375 0l0 -1.40625l5.046875 0q0.859375 0 1.28125 -0.171875q0.4375 -0.15625 0.6875 -0.578125q0.25 -0.40624237 0.25 -0.9687424q0 -0.90625 -0.578125 -1.5625q-0.5625 -0.640625 -2.15625 -0.640625l-4.53125 0l0 -1.40625zm0 14.27343l1.046875 0q-1.234375 -0.78125 -1.234375 -2.3125q0 -1.0 0.546875 -1.828125q0.546875 -0.828125 1.53125 -1.296875q0.984375 -0.453125 2.25 -0.453125q1.25 0 2.25 0.40625q1.015625 0.421875 1.546875 1.25q0.546875 0.828125 0.546875 1.859375q0 0.75 -0.3125 1.328125q-0.3125 0.59375 -0.828125 0.953125l4.109375 0l0 1.40625l-11.453125 0l0 -1.3125zm4.140625 -4.4375q-1.59375 0 -2.390625 0.671875q-0.78125 0.671875 -0.78125 1.578125q0 0.921875 0.75 1.5625q0.765625 0.65625 2.3125 0.65625q1.703125 0 2.5 -0.65625q0.796875 -0.65625 0.796875 -1.625q0 -0.9375 -0.765625 -1.5625q-0.765625 -0.625 -2.421875 -0.625zm-1.09375 17.8125l-0.1875 1.390625q-1.421875 -0.234375 -2.234375 -1.171875q-0.8125 -0.921875 -0.8125 -2.28125q0 -1.703125 1.109375 -2.75q1.125 -1.03125 3.203125 -1.03125q1.34375 0 2.34375 0.4375q1.015625 0.453125 1.515625 1.359375q0.5 0.921875 0.5 1.984375q0 1.359375 -0.6875 2.21875q-0.671875 0.859375 -1.9375 1.09375l-0.203125 -1.359375q0.828125 -0.203125 1.25 -0.703125q0.421875 -0.484375 0.421875 -1.1875q0 -1.0625 -0.765625 -1.734375q-0.75 -0.65625 -2.40625 -0.65625q-1.671875 0 -2.4375 0.640625q-0.75 0.640625 -0.75 1.671875q0 0.828125 0.5 1.375q0.515625 0.5625 1.578125 0.703125zm-3.046875 2.59375l11.453125 0l0 1.40625l-4.109375 0q1.140625 0.984375 1.140625 2.484375q0 0.921875 -0.359375 1.59375q-0.359375 0.6875 -1.0 0.96875q-0.640625 0.296875 -1.859375 0.296875l-5.265625 0l0 -1.40625l5.265625 0q1.046875 0 1.53125 -0.453125q0.484375 -0.453125 0.484375 -1.296875q0 -0.625 -0.328125 -1.171875q-0.328125 -0.546875 -0.890625 -0.78125q-0.546875 -0.234375 -1.515625 -0.234375l-4.546875 0l0 -1.40625zm1.03125 14.3046875q-0.671875 -0.78125 -0.953125 -1.5q-0.265625 -0.71875 -0.265625 -1.546875q0 -1.375 0.671875 -2.109375q0.671875 -0.734375 1.703125 -0.734375q0.609375 0 1.109375 0.28125q0.515625 0.28125 0.8125 0.71875q0.3125 0.453125 0.46875 1.015625q0.109375 0.421875 0.203125 1.25q0.203125 1.703125 0.484375 2.515625q0.296875 0 0.375 0q0.859375 0 1.203125 -0.390625q0.484375 -0.546875 0.484375 -1.609375q0 -0.984375 -0.359375 -1.46875q-0.34375 -0.46875 -1.21875 -0.6875l0.1875 -1.375q0.875 0.1875 1.421875 0.609375q0.546875 0.4375 0.828125 1.25q0.296875 0.8125 0.296875 1.875q0 1.0625 -0.25 1.71875q-0.25 0.671875 -0.625 0.984375q-0.375 0.3125 -0.953125 0.4375q-0.359375 0.078125 -1.296875 0.078125l-1.875 0q-1.96875 0 -2.484375 0.078125q-0.515625 0.09375 -1.0 0.359375l0 -1.46875q0.4375 -0.21875 1.03125 -0.28125zm3.140625 -0.109375q-0.3125 -0.765625 -0.53125 -2.296875q-0.125 -0.875 -0.28125 -1.234375q-0.15625 -0.359375 -0.46875 -0.5625q-0.296875 -0.1875 -0.65625 -0.1875q-0.5625 0 -0.9375 0.421875q-0.375 0.4375 -0.375 1.25q0 0.8125 0.34375 1.4375q0.359375 0.640625 0.984375 0.9375q0.46875 0.234375 1.40625 0.234375l0.515625 0zm-4.171875 3.6015625l8.296875 0l0 1.265625l-1.171875 0q1.359375 0.90625 1.359375 2.640625q0 0.75 -0.265625 1.375q-0.265625 0.625 -0.703125 0.9375q-0.4375 0.3125 -1.046875 0.4375q-0.390625 0.078125 -1.359375 0.078125l-5.109375 0l0 -1.40625l5.046875 0q0.859375 0 1.28125 -0.171875q0.4375 -0.15625 0.6875 -0.578125q0.25 -0.40625 0.25 -0.96875q0 -0.90625 -0.578125 -1.5625q-0.5625 -0.640625 -2.15625 -0.640625l-4.53125 0l0 -1.40625zm-0.6875 8.6328125l-0.203125 1.375q-0.640625 0.078125 -0.921875 0.46875q-0.390625 0.53125 -0.390625 1.4375q0 0.96875 0.390625 1.5q0.390625 0.53125 1.09375 0.71875q0.421875 0.109375 1.8125 0.109375q-1.09375 -0.921875 -1.09375 -2.296875q0 -1.71875 1.234375 -2.65625q1.234375 -0.9375 2.96875 -0.9375q1.1875 0 2.1875 0.421875q1.0 0.4375 1.546875 1.25q0.546875 0.828125 0.546875 1.921875q0 1.46875 -1.1875 2.421875l1.0 0l0 1.296875l-7.171875 0q-1.9375 0 -2.75 -0.390625q-0.8125 -0.390625 -1.28125 -1.25q-0.46875 -0.859375 -0.46875 -2.109375q0 -1.484375 0.671875 -2.40625q0.671875 -0.90625 2.015625 -0.875zm4.984375 1.171875q-1.625 0 -2.375 0.640625q-0.75 0.65625 -0.75 1.625q0 0.96875 0.734375 1.625q0.75 0.65625 2.34375 0.65625q1.53125 0 2.296875 -0.671875q0.78125 -0.671875 0.78125 -1.625q0 -0.9375 -0.765625 -1.59375q-0.765625 -0.65625 -2.265625 -0.65625zm-1.625 13.6640625l-0.171875 1.453125q-1.28125 -0.34375 -1.984375 -1.28125q-0.703125 -0.921875 -0.703125 -2.359375q0 -1.828125 1.125 -2.890625q1.125 -1.0625 3.140625 -1.0625q2.09375 0 3.25 1.078125q1.15625 1.078125 1.15625 2.796875q0 1.65625 -1.140625 2.703125q-1.125 1.0625 -3.171875 1.0625q-0.125 0 -0.375 0l0 -6.1875q-1.375 0.078125 -2.109375 0.765625q-0.71875 0.703125 -0.71875 1.734375q0 0.78125 0.40625 1.328125q0.40625 0.546875 1.296875 0.859375zm2.28125 -4.609375l0 4.625q1.046875 -0.09375 1.5625 -0.53125q0.8125 -0.671875 0.8125 -1.734375q0 -0.96875 -0.65625 -1.640625q-0.640625 -0.65625 -1.71875 -0.71875zm-2.46875 7.2734375l0.21875 1.390625q-0.84375 0.109375 -1.296875 0.640625q-0.4375 0.546875 -0.4375 1.5q0 0.96875 0.390625 1.4375q0.40625 0.46875 0.9375 0.46875q0.46875 0 0.75 -0.40625q0.1875 -0.296875 0.46875 -1.4375q0.390625 -1.546875 0.671875 -2.15625q0.296875 -0.59375 0.796875 -0.90625q0.5 -0.296875 1.109375 -0.296875q0.5625 0 1.03125 0.25q0.46875 0.25 0.78125 0.6875q0.25 0.328125 0.40625 0.890625q0.171875 0.578125 0.171875 1.21875q0 0.984375 -0.28125 1.71875q-0.28125 0.734375 -0.765625 1.078125q-0.46875 0.359375 -1.28125 0.5l-0.1875 -1.375q0.640625 -0.09375 1.0 -0.546875q0.359375 -0.453125 0.359375 -1.265625q0 -0.96875 -0.328125 -1.390625q-0.3125 -0.40625 -0.734375 -0.40625q-0.28125 0 -0.5 0.171875q-0.21875 0.171875 -0.375 0.53125q-0.078125 0.21875 -0.359375 1.25q-0.390625 1.484375 -0.65625 2.078125q-0.25 0.59375 -0.734375 0.921875q-0.484375 0.34375 -1.203125 0.34375q-0.703125 0 -1.328125 -0.421875q-0.609375 -0.40625 -0.953125 -1.1875q-0.34375 -0.765625 -0.34375 -1.734375q0 -1.625 0.671875 -2.46875q0.671875 -0.84375 2.0 -1.078125zm0.1875 18.679688l-0.171875 1.453125q-1.28125 -0.34375 -1.984375 -1.28125q-0.703125 -0.921875 -0.703125 -2.359375q0 -1.828125 1.125 -2.890625q1.125 -1.0625 3.140625 -1.0625q2.09375 0 3.25 1.078125q1.15625 1.078125 1.15625 2.796875q0 1.65625 -1.140625 2.703125q-1.125 1.0625 -3.171875 1.0625q-0.125 0 -0.375 0l0 -6.1875q-1.375 0.078125 -2.109375 0.765625q-0.71875 0.703125 -0.71875 1.734375q0 0.78125 0.40625 1.328125q0.40625 0.546875 1.296875 0.859375zm2.28125 -4.609375l0 4.625q1.046875 -0.09375 1.5625 -0.53125q0.8125 -0.671875 0.8125 -1.734375q0 -0.96875 -0.65625 -1.640625q-0.640625 -0.65625 -1.71875 -0.71875zm-4.953125 10.1328125l8.296875 -3.15625l0 1.484375l-4.96875 1.78125q-0.796875 0.296875 -1.671875 0.53125q0.65625 0.1875 1.578125 0.53125l5.0625 1.84375l0 1.4375l-8.296875 -3.140625l0 -1.3125zm2.671875 11.375l-0.171875 1.453125q-1.28125 -0.34375 -1.984375 -1.28125q-0.703125 -0.921875 -0.703125 -2.359375q0 -1.828125 1.125 -2.890625q1.125 -1.0625 3.140625 -1.0625q2.09375 0 3.25 1.078125q1.15625 1.078125 1.15625 2.796875q0 1.65625 -1.140625 2.703125q-1.125 1.0625 -3.171875 1.0625q-0.125 0 -0.375 0l0 -6.1875q-1.375 0.078125 -2.109375 0.765625q-0.71875 0.703125 -0.71875 1.734375q0 0.78125 0.40625 1.328125q0.40625 0.546875 1.296875 0.859375zm2.28125 -4.609375l0 4.625q1.046875 -0.09375 1.5625 -0.53125q0.8125 -0.671875 0.8125 -1.734375q0 -0.96875 -0.65625 -1.640625q-0.640625 -0.65625 -1.71875 -0.71875zm-4.953125 7.8203125l8.296875 0l0 1.265625l-1.25 0q0.875 0.484375 1.15625 0.890625q0.28125 0.40625 0.28125 0.90625q0 0.703125 -0.453125 1.4375l-1.296875 -0.484375q0.296875 -0.515625 0.296875 -1.03125q0 -0.453125 -0.28125 -0.828125q-0.265625 -0.359375 -0.765625 -0.515625q-0.75 -0.234375 -1.640625 -0.234375l-4.34375 0l0 -1.40625zm-3.203125 5.28125l1.328125 -0.15625q-0.125 0.453125 -0.125 0.796875q0 0.46875 0.15625 0.75q0.15625 0.28125 0.4375 0.46875q0.203125 0.125 1.046875 0.421875q0.109375 0.046875 0.34375 0.125l8.3125 -3.140625l0 1.515625l-4.796875 1.71875q-0.921875 0.34375 -1.921875 0.609375q0.96875 0.234375 1.890625 0.578125l4.828125 1.765625l0 1.40625l-8.4375 -3.15625q-1.375 -0.5 -1.890625 -0.78125q-0.6875 -0.375 -1.015625 -0.859375q-0.328125 -0.484375 -0.328125 -1.15625q0 -0.40625 0.171875 -0.90625zm2.515625 12.2421875l-0.203125 1.375q-0.640625 0.078125 -0.921875 0.46875q-0.390625 0.53125 -0.390625 1.4375q0 0.96875 0.390625 1.5q0.390625 0.53125 1.09375 0.71875q0.421875 0.109375 1.8125 0.109375q-1.09375 -0.921875 -1.09375 -2.296875q0 -1.71875 1.234375 -2.65625q1.234375 -0.9375 2.96875 -0.9375q1.1875 0 2.1875 0.421875q1.0 0.4375 1.546875 1.25q0.546875 0.828125 0.546875 1.921875q0 1.46875 -1.1875 2.421875l1.0 0l0 1.296875l-7.171875 0q-1.9375 0 -2.75 -0.390625q-0.8125 -0.390625 -1.28125 -1.25q-0.46875 -0.859375 -0.46875 -2.109375q0 -1.484375 0.671875 -2.40625q0.671875 -0.90625 2.015625 -0.875zm4.984375 1.171875q-1.625 0 -2.375 0.640625q-0.75 0.65625 -0.75 1.625q0 0.96875 0.734375 1.625q0.75 0.65625 2.34375 0.65625q1.53125 0 2.296875 -0.671875q0.78125 -0.671875 0.78125 -1.625q0 -0.9375 -0.765625 -1.59375q-0.765625 -0.65625 -2.265625 -0.65625zm-3.265625 13.3984375q-0.671875 -0.78125 -0.953125 -1.5q-0.265625 -0.71875 -0.265625 -1.546875q0 -1.375 0.671875 -2.109375q0.671875 -0.734375 1.703125 -0.734375q0.609375 0 1.109375 0.28125q0.515625 0.28125 0.8125 0.71875q0.3125 0.453125 0.46875 1.015625q0.109375 0.421875 0.203125 1.25q0.203125 1.703125 0.484375 2.515625q0.296875 0 0.375 0q0.859375 0 1.203125 -0.390625q0.484375 -0.546875 0.484375 -1.609375q0 -0.984375 -0.359375 -1.46875q-0.34375 -0.46875 -1.21875 -0.6875l0.1875 -1.375q0.875 0.1875 1.421875 0.609375q0.546875 0.4375 0.828125 1.25q0.296875 0.8125 0.296875 1.875q0 1.0625 -0.25 1.71875q-0.25 0.671875 -0.625 0.984375q-0.375 0.3125 -0.953125 0.4375q-0.359375 0.078125 -1.296875 0.078125l-1.875 0q-1.96875 0 -2.484375 0.078125q-0.515625 0.09375 -1.0 0.359375l0 -1.46875q0.4375 -0.21875 1.03125 -0.28125zm3.140625 -0.109375q-0.3125 -0.765625 -0.53125 -2.296875q-0.125 -0.875 -0.28125 -1.234375q-0.15625 -0.359375 -0.46875 -0.5625q-0.296875 -0.1875 -0.65625 -0.1875q-0.5625 0 -0.9375 0.421875q-0.375 0.4375 -0.375 1.25q0 0.8125 0.34375 1.4375q0.359375 0.640625 0.984375 0.9375q0.46875 0.234375 1.40625 0.234375l0.515625 0zm-4.171875 3.6015625l8.296875 0l0 1.25l-1.15625 0q0.609375 0.390625 0.96875 1.03125q0.375 0.65625 0.375 1.484375q0 0.921875 -0.390625 1.515625q-0.375 0.59375 -1.0625 0.828125q1.453125 0.984375 1.453125 2.5625q0 1.234375 -0.6875 1.890625q-0.671875 0.671875 -2.09375 0.671875l-5.703125 0l0 -1.390625l5.234375 0q0.84375 0 1.203125 -0.140625q0.375 -0.140625 0.59375 -0.5q0.234375 -0.359375 0.234375 -0.84375q0 -0.875 -0.578125 -1.453125q-0.578125 -0.578125 -1.859375 -0.578125l-4.828125 0l0 -1.40625l5.390625 0q0.9375 0 1.40625 -0.34375q0.46875 -0.34375 0.46875 -1.125q0 -0.59375 -0.3125 -1.09375q-0.3125 -0.5 -0.921875 -0.734375q-0.59375 -0.21875 -1.71875 -0.21875l-4.3125 0l0 -1.40625zm2.671875 19.0l-0.171875 1.453125q-1.28125 -0.34375 -1.984375 -1.28125q-0.703125 -0.921875 -0.703125 -2.359375q0 -1.828125 1.125 -2.890625q1.125 -1.0625 3.140625 -1.0625q2.09375 0 3.25 1.078125q1.15625 1.078125 1.15625 2.796875q0 1.65625 -1.140625 2.703125q-1.125 1.0625 -3.171875 1.0625q-0.125 0 -0.375 0l0 -6.1875q-1.375 0.078125 -2.109375 0.765625q-0.71875 0.703125 -0.71875 1.734375q0 0.78125 0.40625 1.328125q0.40625 0.546875 1.296875 0.859375zm2.28125 -4.609375l0 4.625q1.046875 -0.09375 1.5625 -0.53125q0.8125 -0.671875 0.8125 -1.734375q0 -0.96875 -0.65625 -1.640625q-0.640625 -0.65625 -1.71875 -0.71875zm-4.953125 8.1953125l1.609375 0l0 1.609375l-1.609375 0q-0.890625 0 -1.421875 -0.3125q-0.546875 -0.3125 -0.84375 -1.0l0.59375 -0.390625q0.203125 0.453125 0.578125 0.65625q0.375 0.21875 1.09375 0.234375l0 -0.796875zm1.03125 13.9375q-0.671875 -0.78125 -0.953125 -1.5q-0.265625 -0.71875 -0.265625 -1.546875q0 -1.375 0.671875 -2.109375q0.671875 -0.734375 1.703125 -0.734375q0.609375 0 1.109375 0.28125q0.515625 0.28125 0.8125 0.71875q0.3125 0.453125 0.46875 1.015625q0.109375 0.421875 0.203125 1.25q0.203125 1.703125 0.484375 2.515625q0.296875 0 0.375 0q0.859375 0 1.203125 -0.390625q0.484375 -0.546875 0.484375 -1.609375q0 -0.984375 -0.359375 -1.46875q-0.34375 -0.46875 -1.21875 -0.6875l0.1875 -1.375q0.875 0.1875 1.421875 0.609375q0.546875 0.4375 0.828125 1.25q0.296875 0.8125 0.296875 1.875q0 1.0625 -0.25 1.71875q-0.25 0.671875 -0.625 0.984375q-0.375 0.3125 -0.953125 0.4375q-0.359375 0.078125 -1.296875 0.078125l-1.875 0q-1.96875 0 -2.484375 0.078125q-0.515625 0.09375 -1.0 0.359375l0 -1.46875q0.4375 -0.21875 1.03125 -0.28125zm3.140625 -0.109375q-0.3125 -0.765625 -0.53125 -2.296875q-0.125 -0.875 -0.28125 -1.234375q-0.15625 -0.359375 -0.46875 -0.5625q-0.296875 -0.1875 -0.65625 -0.1875q-0.5625 0 -0.9375 0.421875q-0.375 0.4375 -0.375 1.25q0 0.8125 0.34375 1.4375q0.359375 0.640625 0.984375 0.9375q0.46875 0.234375 1.40625 0.234375l0.515625 0zm-4.171875 3.6015625l8.296875 0l0 1.265625l-1.171875 0q1.359375 0.90625 1.359375 2.640625q0 0.75 -0.265625 1.375q-0.265625 0.625 -0.703125 0.9375q-0.4375 0.3125 -1.046875 0.4375q-0.390625 0.078125 -1.359375 0.078125l-5.109375 0l0 -1.40625l5.046875 0q0.859375 0 1.28125 -0.171875q0.4375 -0.15625 0.6875 -0.578125q0.25 -0.40625 0.25 -0.96875q0 -0.90625 -0.578125 -1.5625q-0.5625 -0.640625 -2.15625 -0.640625l-4.53125 0l0 -1.40625zm0 14.2734375l1.046875 0q-1.234375 -0.78125 -1.234375 -2.3125q0 -1.0 0.546875 -1.828125q0.546875 -0.828125 1.53125 -1.296875q0.984375 -0.453125 2.25 -0.453125q1.25 0 2.25 0.40625q1.015625 0.421875 1.546875 1.25q0.546875 0.828125 0.546875 1.859375q0 0.75 -0.3125 1.328125q-0.3125 0.59375 -0.828125 0.953125l4.109375 0l0 1.40625l-11.453125 0l0 -1.3125zm4.140625 -4.4375q-1.59375 0 -2.390625 0.671875q-0.78125 0.671875 -0.78125 1.578125q0 0.921875 0.75 1.5625q0.765625 0.65625 2.3125 0.65625q1.703125 0 2.5 -0.65625q0.796875 -0.65625 0.796875 -1.625q0 -0.9375 -0.765625 -1.5625q-0.765625 -0.625 -2.421875 -0.625zm5.703125 12.40625l1.609375 0l0 1.40625l-1.609375 0l0 -1.40625zm-9.84375 0l8.296875 0l0 1.40625l-8.296875 0l0 -1.40625zm2.484375 2.9921875l0.21875 1.390625q-0.84375 0.109375 -1.296875 0.640625q-0.4375 0.546875 -0.4375 1.5q0 0.96875 0.390625 1.4375q0.40625 0.46875 0.9375 0.46875q0.46875 0 0.75 -0.40625q0.1875 -0.296875 0.46875 -1.4375q0.390625 -1.546875 0.671875 -2.15625q0.296875 -0.59375 0.796875 -0.90625q0.5 -0.296875 1.109375 -0.296875q0.5625 0 1.03125 0.25q0.46875 0.25 0.78125 0.6875q0.25 0.328125 0.40625 0.890625q0.171875 0.578125 0.171875 1.21875q0 0.984375 -0.28125 1.71875q-0.28125 0.734375 -0.765625 1.078125q-0.46875 0.359375 -1.28125 0.5l-0.1875 -1.375q0.640625 -0.09375 1.0 -0.546875q0.359375 -0.453125 0.359375 -1.265625q0 -0.96875 -0.328125 -1.390625q-0.3125 -0.40625 -0.734375 -0.40625q-0.28125 0 -0.5 0.171875q-0.21875 0.171875 -0.375 0.53125q-0.078125 0.21875 -0.359375 1.25q-0.390625 1.484375 -0.65625 2.078125q-0.25 0.59375 -0.734375 0.921875q-0.484375 0.34375 -1.203125 0.34375q-0.703125 0 -1.328125 -0.421875q-0.609375 -0.40625 -0.953125 -1.1875q-0.34375 -0.765625 -0.34375 -1.734375q0 -1.625 0.671875 -2.46875q0.671875 -0.84375 2.0 -1.078125zm-5.671875 13.0078125l11.484375 0l0 1.28125l-1.078125 0q0.640625 0.453125 0.953125 1.015625q0.3125 0.578125 0.3125 1.390625q0 1.0625 -0.546875 1.875q-0.546875 0.8125 -1.546875 1.21875q-0.984375 0.421875 -2.171875 0.421875q-1.28125 0 -2.296875 -0.46875q-1.015625 -0.453125 -1.5625 -1.328125q-0.546875 -0.859375 -0.546875 -1.828125q0 -0.703125 0.296875 -1.265625q0.296875 -0.546875 0.75 -0.90625l-4.046875 0l0 -1.40625zm7.296875 1.265625q-1.609375 0 -2.375 0.640625q-0.765625 0.65625 -0.765625 1.578125q0 0.9375 0.796875 1.609375q0.796875 0.671875 2.453125 0.671875q1.59375 0 2.375 -0.65625q0.796875 -0.65625 0.796875 -1.5625q0 -0.890625 -0.84375 -1.59375q-0.84375 -0.6875 -2.4375 -0.6875zm-4.109375 13.0703125l1.21875 0q-1.40625 -0.96875 -1.40625 -2.640625q0 -0.734375 0.28125 -1.375q0.28125 -0.625 0.703125 -0.9375q0.4375 -0.3125 1.046875 -0.4375q0.421875 -0.078125 1.3125 -0.078125l5.140625 0l0 1.40625l-4.59375 0q-1.109375 0 -1.484375 0.078125q-0.5625 0.140625 -0.875 0.5625q-0.3125 0.4375 -0.3125 1.0625q0 0.640625 0.3125 1.1875q0.328125 0.5625 0.890625 0.78125q0.5625 0.234375 1.625 0.234375l4.4375 0l0 1.40625l-8.296875 0l0 -1.25zm0 3.4296875l11.453125 0l0 1.40625l-11.453125 0l0 -1.40625zm0 3.5546875l11.453125 0l0 1.40625l-11.453125 0l0 -1.40625zm2.671875 9.2578125l-0.171875 1.453125q-1.28125 -0.34375 -1.984375 -1.28125q-0.703125 -0.921875 -0.703125 -2.359375q0 -1.828125 1.125 -2.890625q1.125 -1.0625 3.140625 -1.0625q2.09375 0 3.25 1.078125q1.15625 1.078125 1.15625 2.796875q0 1.65625 -1.140625 2.703125q-1.125 1.0625 -3.171875 1.0625q-0.125 0 -0.375 0l0 -6.1875q-1.375 0.078125 -2.109375 0.765625q-0.71875 0.703125 -0.71875 1.734375q0 0.78125 0.40625 1.328125q0.40625 0.546875 1.296875 0.859375zm2.28125 -4.609375l0 4.625q1.046875 -0.09375 1.5625 -0.53125q0.8125 -0.671875 0.8125 -1.734375q0 -0.96875 -0.65625 -1.640625q-0.640625 -0.65625 -1.71875 -0.71875zm-4.953125 13.2109375l1.046875 0q-1.234375 -0.78125 -1.234375 -2.3125q0 -1.0 0.546875 -1.828125q0.546875 -0.828125 1.53125 -1.296875q0.984375 -0.453125 2.25 -0.453125q1.25 0 2.25 0.40625q1.015625 0.421875 1.546875 1.25q0.546875 0.828125 0.546875 1.859375q0 0.75 -0.3125 1.328125q-0.3125 0.59375 -0.828125 0.953125l4.109375 0l0 1.40625l-11.453125 0l0 -1.3125zm4.140625 -4.4375q-1.59375 0 -2.390625 0.671875q-0.78125 0.671875 -0.78125 1.578125q0 0.921875 0.75 1.5625q0.765625 0.65625 2.3125 0.65625q1.703125 0 2.5 -0.65625q0.796875 -0.65625 0.796875 -1.625q0 -0.9375 -0.765625 -1.5625q-0.765625 -0.625 -2.421875 -0.625zm-4.140625 12.734375l7.203125 0l0 -1.234375l1.09375 0l0 1.234375l0.890625 0q0.828125 0 1.234375 0.15625q0.546875 0.203125 0.890625 0.703125q0.34375 0.515625 0.34375 1.4375q0 0.59375 -0.140625 1.3125l-1.234375 -0.203125q0.078125 -0.4375 0.078125 -0.828125q0 -0.640625 -0.28125 -0.90625q-0.265625 -0.265625 -1.015625 -0.265625l-0.765625 0l0 1.609375l-1.09375 0l0 -1.609375l-7.203125 0l0 -1.40625zm0 4.1015625l8.296875 0l0 1.265625l-1.25 0q0.875 0.484375 1.15625 0.890625q0.28125 0.40625 0.28125 0.90625q0 0.703125 -0.453125 1.4375l-1.296875 -0.484375q0.296875 -0.515625 0.296875 -1.03125q0 -0.453125 -0.28125 -0.828125q-0.265625 -0.359375 -0.765625 -0.515625q-0.75 -0.234375 -1.640625 -0.234375l-4.34375 0l0 -1.40625zm4.15625 4.8125q2.296875 0 3.40625 1.28125q0.921875 1.078125 0.921875 2.609375q0 1.71875 -1.125 2.796875q-1.109375 1.09375 -3.09375 1.09375q-1.59375 0 -2.515625 -0.484375q-0.921875 -0.484375 -1.4375 -1.40625q-0.5 -0.90625 -0.5 -2.0q0 -1.734375 1.109375 -2.8125q1.125 -1.078125 3.234375 -1.078125zm0 1.453125q-1.59375 0 -2.390625 0.6875q-0.796875 0.703125 -0.796875 1.75q0 1.046875 0.796875 1.734375q0.796875 0.703125 2.4375 0.703125q1.53125 0 2.328125 -0.703125q0.796875 -0.6875 0.796875 -1.734375q0 -1.046875 -0.796875 -1.75q-0.78125 -0.6875 -2.375 -0.6875zm-4.15625 7.9765625l8.296875 0l0 1.25l-1.15625 0q0.609375 0.390625 0.96875 1.03125q0.375 0.65625 0.375 1.484375q0 0.921875 -0.390625 1.515625q-0.375 0.59375 -1.0625 0.828125q1.453125 0.984375 1.453125 2.5625q0 1.234375 -0.6875 1.890625q-0.671875 0.671875 -2.09375 0.671875l-5.703125 0l0 -1.390625l5.234375 0q0.84375 0 1.203125 -0.140625q0.375 -0.140625 0.59375 -0.5q0.234375 -0.359375 0.234375 -0.84375q0 -0.875 -0.578125 -1.453125q-0.578125 -0.578125 -1.859375 -0.578125l-4.828125 0l0 -1.40625l5.390625 0q0.9375 0 1.40625 -0.34375q0.46875 -0.34375 0.46875 -1.125q0 -0.59375 -0.3125 -1.09375q-0.3125 -0.5 -0.921875 -0.734375q-0.59375 -0.21875 -1.71875 -0.21875l-4.3125 0l0 -1.40625zm1.03125 23.179688q-0.671875 -0.78125 -0.953125 -1.5q-0.265625 -0.71875 -0.265625 -1.546875q0 -1.375 0.671875 -2.109375q0.671875 -0.734375 1.703125 -0.734375q0.609375 0 1.109375 0.28125q0.515625 0.28125 0.8125 0.71875q0.3125 0.453125 0.46875 1.015625q0.109375 0.421875 0.203125 1.25q0.203125 1.703125 0.484375 2.515625q0.296875 0 0.375 0q0.859375 0 1.203125 -0.390625q0.484375 -0.546875 0.484375 -1.609375q0 -0.984375 -0.359375 -1.46875q-0.34375 -0.46875 -1.21875 -0.6875l0.1875 -1.375q0.875 0.1875 1.421875 0.609375q0.546875 0.4375 0.828125 1.25q0.296875 0.8125 0.296875 1.875q0 1.0625 -0.25 1.71875q-0.25 0.671875 -0.625 0.984375q-0.375 0.3125 -0.953125 0.4375q-0.359375 0.078125 -1.296875 0.078125l-1.875 0q-1.96875 0 -2.484375 0.078125q-0.515625 0.09375 -1.0 0.359375l0 -1.46875q0.4375 -0.21875 1.03125 -0.28125zm3.140625 -0.109375q-0.3125 -0.765625 -0.53125 -2.296875q-0.125 -0.875 -0.28125 -1.234375q-0.15625 -0.359375 -0.46875 -0.5625q-0.296875 -0.1875 -0.65625 -0.1875q-0.5625 0 -0.9375 0.421875q-0.375 0.4375 -0.375 1.25q0 0.8125 0.34375 1.4375q0.359375 0.640625 0.984375 0.9375q0.46875 0.234375 1.40625 0.234375l0.515625 0zm-4.171875 3.6015625l8.296875 0l0 1.265625l-1.171875 0q1.359375 0.90625 1.359375 2.640625q0 0.75 -0.265625 1.375q-0.265625 0.625 -0.703125 0.9375q-0.4375 0.3125 -1.046875 0.4375q-0.390625 0.078125 -1.359375 0.078125l-5.109375 0l0 -1.40625l5.046875 0q0.859375 0 1.28125 -0.171875q0.4375 -0.15625 0.6875 -0.578125q0.25 -0.40625 0.25 -0.96875q0 -0.90625 -0.578125 -1.5625q-0.5625 -0.640625 -2.15625 -0.640625l-4.53125 0l0 -1.40625zm1.03125 18.75q-0.671875 -0.78125 -0.953125 -1.5q-0.265625 -0.71875 -0.265625 -1.546875q0 -1.375 0.671875 -2.109375q0.671875 -0.734375 1.703125 -0.734375q0.609375 0 1.109375 0.28125q0.515625 0.28125 0.8125 0.71875q0.3125 0.453125 0.46875 1.015625q0.109375 0.421875 0.203125 1.25q0.203125 1.703125 0.484375 2.515625q0.296875 0 0.375 0q0.859375 0 1.203125 -0.390625q0.484375 -0.546875 0.484375 -1.609375q0 -0.984375 -0.359375 -1.46875q-0.34375 -0.46875 -1.21875 -0.6875l0.1875 -1.375q0.875 0.1875 1.421875 0.609375q0.546875 0.4375 0.828125 1.25q0.296875 0.8125 0.296875 1.875q0 1.0625 -0.25 1.71875q-0.25 0.671875 -0.625 0.984375q-0.375 0.3125 -0.953125 0.4375q-0.359375 0.078125 -1.296875 0.078125l-1.875 0q-1.96875 0 -2.484375 0.078125q-0.515625 0.09375 -1.0 0.359375l0 -1.46875q0.4375 -0.21875 1.03125 -0.28125zm3.140625 -0.109375q-0.3125 -0.765625 -0.53125 -2.296875q-0.125 -0.875 -0.28125 -1.234375q-0.15625 -0.359375 -0.46875 -0.5625q-0.296875 -0.1875 -0.65625 -0.1875q-0.5625 0 -0.9375 0.421875q-0.375 0.4375 -0.375 1.25q0 0.8125 0.34375 1.4375q0.359375 0.640625 0.984375 0.9375q0.46875 0.234375 1.40625 0.234375l0.515625 0zm-7.359375 3.6015625l11.484375 0l0 1.28125l-1.078125 0q0.640625 0.453125 0.953125 1.015625q0.3125 0.578125 0.3125 1.390625q0 1.0625 -0.546875 1.875q-0.546875 0.8125 -1.546875 1.21875q-0.984375 0.421875 -2.171875 0.421875q-1.28125 0 -2.296875 -0.46875q-1.015625 -0.453125 -1.5625 -1.328125q-0.546875 -0.859375 -0.546875 -1.828125q0 -0.703125 0.296875 -1.265625q0.296875 -0.546875 0.75 -0.90625l-4.046875 0l0 -1.40625zm7.296875 1.265625q-1.609375 0 -2.375 0.640625q-0.765625 0.65625 -0.765625 1.578125q0 0.9375 0.796875 1.609375q0.796875 0.671875 2.453125 0.671875q1.59375 0 2.375 -0.65625q0.796875 -0.65625 0.796875 -1.5625q0 -0.890625 -0.84375 -1.59375q-0.84375 -0.6875 -2.4375 -0.6875zm5.734375 7.6328125l1.609375 0l0 1.40625l-1.609375 0l0 -1.40625zm-9.84375 0l8.296875 0l0 1.40625l-8.296875 0l0 -1.40625z" fill-rule="nonzero"/></g></svg>
